<svg height="1118" width="720" xmlns="http://www.w3.org/2000/svg">
<rect height="1118" fill="#555" width="720"></rect>
<text fill="#7f7" font-family="Courier New" font-size="12" xml:space="preserve">
<tspan x="10" y="26">3 megabytes installed</tspan>
<tspan x="10" y="42"></tspan>
<tspan x="10" y="58">node_modules</tspan>
<tspan x="10" y="74">└─┬ onchange@3.2.1 </tspan>
<tspan x="10" y="90">  ├── arrify@1.0.1 </tspan>
<tspan x="10" y="106">  ├─┬ chokidar@1.6.1 </tspan>
<tspan x="10" y="122">  │ ├─┬ anymatch@1.3.0 </tspan>
<tspan x="10" y="138">  │ │ └─┬ micromatch@2.3.11 </tspan>
<tspan x="10" y="154">  │ │   ├─┬ arr-diff@2.0.0 </tspan>
<tspan x="10" y="170">  │ │   │ └── arr-flatten@1.0.3 </tspan>
<tspan x="10" y="186">  │ │   ├── array-unique@0.2.1 </tspan>
<tspan x="10" y="202">  │ │   ├─┬ braces@1.8.5 </tspan>
<tspan x="10" y="218">  │ │   │ ├─┬ expand-range@1.8.2 </tspan>
<tspan x="10" y="234">  │ │   │ │ └─┬ fill-range@2.2.3 </tspan>
<tspan x="10" y="250">  │ │   │ │   ├── is-number@2.1.0 </tspan>
<tspan x="10" y="266">  │ │   │ │   ├── isobject@2.1.0 </tspan>
<tspan x="10" y="282">  │ │   │ │   ├── randomatic@1.1.6 </tspan>
<tspan x="10" y="298">  │ │   │ │   └── repeat-string@1.6.1 </tspan>
<tspan x="10" y="314">  │ │   │ ├── preserve@0.2.0 </tspan>
<tspan x="10" y="330">  │ │   │ └── repeat-element@1.1.2 </tspan>
<tspan x="10" y="346">  │ │   ├─┬ expand-brackets@0.1.5 </tspan>
<tspan x="10" y="362">  │ │   │ └── is-posix-bracket@0.1.1 </tspan>
<tspan x="10" y="378">  │ │   ├── extglob@0.3.2 </tspan>
<tspan x="10" y="394">  │ │   ├── filename-regex@2.0.0 </tspan>
<tspan x="10" y="410">  │ │   ├─┬ kind-of@3.2.0 </tspan>
<tspan x="10" y="426">  │ │   │ └── is-buffer@1.1.5 </tspan>
<tspan x="10" y="442">  │ │   ├─┬ normalize-path@2.1.1 </tspan>
<tspan x="10" y="458">  │ │   │ └── remove-trailing-separator@1.0.1 </tspan>
<tspan x="10" y="474">  │ │   ├─┬ object.omit@2.0.1 </tspan>
<tspan x="10" y="490">  │ │   │ ├─┬ for-own@0.1.5 </tspan>
<tspan x="10" y="506">  │ │   │ │ └── for-in@1.0.2 </tspan>
<tspan x="10" y="522">  │ │   │ └── is-extendable@0.1.1 </tspan>
<tspan x="10" y="538">  │ │   ├─┬ parse-glob@3.0.4 </tspan>
<tspan x="10" y="554">  │ │   │ ├── glob-base@0.3.0 </tspan>
<tspan x="10" y="570">  │ │   │ └── is-dotfile@1.0.2 </tspan>
<tspan x="10" y="586">  │ │   └─┬ regex-cache@0.4.3 </tspan>
<tspan x="10" y="602">  │ │     ├── is-equal-shallow@0.1.3 </tspan>
<tspan x="10" y="618">  │ │     └── is-primitive@2.0.0 </tspan>
<tspan x="10" y="634">  │ ├── async-each@1.0.1 </tspan>
<tspan x="10" y="650">  │ ├── glob-parent@2.0.0 </tspan>
<tspan x="10" y="666">  │ ├── inherits@2.0.3 </tspan>
<tspan x="10" y="682">  │ ├─┬ is-binary-path@1.0.1 </tspan>
<tspan x="10" y="698">  │ │ └── binary-extensions@1.8.0 </tspan>
<tspan x="10" y="714">  │ ├─┬ is-glob@2.0.1 </tspan>
<tspan x="10" y="730">  │ │ └── is-extglob@1.0.0 </tspan>
<tspan x="10" y="746">  │ ├── path-is-absolute@1.0.1 </tspan>
<tspan x="10" y="762">  │ └─┬ readdirp@2.1.0 </tspan>
<tspan x="10" y="778">  │   ├── graceful-fs@4.1.11 </tspan>
<tspan x="10" y="794">  │   ├─┬ minimatch@3.0.3 </tspan>
<tspan x="10" y="810">  │   │ └─┬ brace-expansion@1.1.7 </tspan>
<tspan x="10" y="826">  │   │   ├── balanced-match@0.4.2 </tspan>
<tspan x="10" y="842">  │   │   └── concat-map@0.0.1 </tspan>
<tspan x="10" y="858">  │   ├─┬ readable-stream@2.2.9 </tspan>
<tspan x="10" y="874">  │   │ ├── buffer-shims@1.0.0 </tspan>
<tspan x="10" y="890">  │   │ ├── core-util-is@1.0.2 </tspan>
<tspan x="10" y="906">  │   │ ├── isarray@1.0.0 </tspan>
<tspan x="10" y="922">  │   │ ├── process-nextick-args@1.0.7 </tspan>
<tspan x="10" y="938">  │   │ ├── string_decoder@1.0.0 </tspan>
<tspan x="10" y="954">  │   │ └── util-deprecate@1.0.2 </tspan>
<tspan x="10" y="970">  │   └── set-immediate-shim@1.0.1 </tspan>
<tspan x="10" y="986">  ├─┬ cross-spawn@4.0.2 </tspan>
<tspan x="10" y="1002">  │ ├─┬ lru-cache@4.0.2 </tspan>
<tspan x="10" y="1018">  │ │ ├── pseudomap@1.0.2 </tspan>
<tspan x="10" y="1034">  │ │ └── yallist@2.1.2 </tspan>
<tspan x="10" y="1050">  │ └─┬ which@1.2.14 </tspan>
<tspan x="10" y="1066">  │   └── isexe@2.0.0 </tspan>
<tspan x="10" y="1082">  ├── minimist@1.2.0 </tspan>
<tspan x="10" y="1098">  └── tree-kill@1.1.0</tspan>
</text>
</svg>
